<svg width="960" height="540" viewBox="0 0 960 540" fill="none" xmlns="http://www.w3.org/2000/svg">
  <rect width="960" height="540" rx="42" fill="#F5F5F7"/>
  <rect x="148" y="76" width="664" height="388" rx="34" fill="white" stroke="#D9D8D2" stroke-width="4"/>
  <path d="M224 150H506M224 206H404M224 262H562M224 318H372" stroke="#CFC5B4" stroke-width="16" stroke-linecap="round"/>
  <rect x="422" y="288" width="252" height="64" rx="18" fill="#DDE4DA" stroke="#223631" stroke-width="5"/>
  <path d="M454 320H612" stroke="#223631" stroke-width="12" stroke-linecap="round"/>
  <circle cx="650" cy="162" r="54" fill="#223631"/>
  <path d="M626 162H674M650 138V186" stroke="white" stroke-width="12" stroke-linecap="round"/>
  <path d="M222 388H686" stroke="#DDE4DA" stroke-width="14" stroke-linecap="round"/>
  <path d="M706 108L728 146L770 154L740 184L746 226L706 206L668 226L674 184L644 154L686 146L706 108Z" fill="#F2BD35" stroke="#223631" stroke-width="5" stroke-linejoin="round"/>
</svg>
