<svg width="960" height="540" viewBox="0 0 960 540" fill="none" xmlns="http://www.w3.org/2000/svg">
  <rect width="960" height="540" rx="42" fill="#F5F5F7"/>
  <path d="M86 374C150 320 214 302 278 320C342 338 406 392 470 376C534 360 598 274 662 252C726 230 790 272 874 202" stroke="#223631" stroke-width="18" stroke-linecap="round"/>
  <path d="M86 424C150 370 214 352 278 370C342 388 406 442 470 426C534 410 598 324 662 302C726 280 790 322 874 252" stroke="#DDE4DA" stroke-width="18" stroke-linecap="round"/>
  <rect x="106" y="94" width="290" height="244" rx="28" fill="white" stroke="#D9D8D2" stroke-width="4"/>
  <rect x="142" y="136" width="218" height="48" rx="14" fill="#EDEBE4"/>
  <rect x="142" y="212" width="92" height="68" rx="18" fill="#223631"/>
  <rect x="268" y="212" width="92" height="68" rx="18" fill="#DDE4DA"/>
  <path d="M172 246H204" stroke="white" stroke-width="10" stroke-linecap="round"/>
  <path d="M300 244H330" stroke="#223631" stroke-width="10" stroke-linecap="round"/>
  <rect x="532" y="94" width="322" height="300" rx="28" fill="white" stroke="#D9D8D2" stroke-width="4"/>
  <path d="M584 157H772" stroke="#223631" stroke-width="16" stroke-linecap="round"/>
  <path d="M584 215H802M584 265H802M584 315H802" stroke="#CFC5B4" stroke-width="12" stroke-linecap="round"/>
  <circle cx="478" cy="230" r="62" fill="#223631"/>
  <path d="M478 194V230L504 254" stroke="white" stroke-width="14" stroke-linecap="round" stroke-linejoin="round"/>
  <circle cx="478" cy="230" r="42" stroke="white" stroke-width="8"/>
  <circle cx="188" cy="374" r="18" fill="#223631"/>
  <circle cx="662" cy="252" r="18" fill="#223631"/>
  <circle cx="874" cy="202" r="18" fill="#223631"/>
</svg>
