<svg width="960" height="540" viewBox="0 0 960 540" fill="none" xmlns="http://www.w3.org/2000/svg">
  <rect width="960" height="540" rx="42" fill="#F5F5F7"/>
  <rect x="92" y="82" width="776" height="376" rx="36" fill="white" stroke="#D9D8D2" stroke-width="4"/>
  <path d="M126 386C218 318 278 316 356 352C444 394 510 338 574 270C646 194 724 176 824 214" stroke="#DDE4DA" stroke-width="70" stroke-linecap="round"/>
  <path d="M126 386C218 318 278 316 356 352C444 394 510 338 574 270C646 194 724 176 824 214" stroke="#223631" stroke-width="18" stroke-linecap="round" stroke-dasharray="2 38"/>
  <circle cx="126" cy="386" r="28" fill="#41A857" stroke="#223631" stroke-width="8"/>
  <circle cx="824" cy="214" r="28" fill="#E45D4C" stroke="#223631" stroke-width="8"/>
  <rect x="164" y="126" width="240" height="86" rx="24" fill="#FFFDF6" stroke="#D9D0BE" stroke-width="4"/>
  <path d="M198 160H318M198 186H360" stroke="#223631" stroke-width="12" stroke-linecap="round"/>
  <path d="M684 338L738 286L792 338" stroke="#223631" stroke-width="14" stroke-linecap="round" stroke-linejoin="round"/>
  <path d="M738 286V402" stroke="#223631" stroke-width="14" stroke-linecap="round"/>
</svg>
