<svg width="960" height="540" viewBox="0 0 960 540" fill="none" xmlns="http://www.w3.org/2000/svg">
  <rect width="960" height="540" rx="42" fill="#F5F5F7"/>
  <rect x="118" y="88" width="724" height="364" rx="36" fill="white" stroke="#D9D8D2" stroke-width="4"/>
  <circle cx="330" cy="210" r="72" fill="#F2BD35" stroke="#223631" stroke-width="8"/>
  <path d="M228 210H180M480 210H432M330 108V60M330 360V312M258 138L224 104M436 316L402 282M402 138L436 104M224 316L258 282" stroke="#223631" stroke-width="12" stroke-linecap="round"/>
  <path d="M420 334H694C748 334 792 296 792 248C792 200 748 162 694 162C672 122 630 98 580 98C516 98 464 142 456 198C414 206 382 242 382 286C382 314 398 334 420 334Z" fill="#DDE4DA" stroke="#223631" stroke-width="8"/>
  <path d="M492 390V426M572 390V426M652 390V426" stroke="#41A857" stroke-width="14" stroke-linecap="round"/>
  <path d="M176 410H386M568 456H762" stroke="#D9D0BE" stroke-width="12" stroke-linecap="round"/>
</svg>
